<?xml version="1.0" encoding="UTF-8"?>
<svg xmlns="http://www.w3.org/2000/svg" viewBox="0 0 900 520" role="img">
<title>National_Test V6 Full-Route Completion Rate MA20</title>
<rect width="100%" height="100%" fill="#ffffff"/>
<g font-family="Times New Roman, Noto Serif SC, serif" fill="#202020">
<text x="450.0" y="28" text-anchor="middle" font-size="18">National_Test V6 Full-Route Completion Rate MA20</text>
<rect x="85" y="55" width="785" height="395" fill="none" stroke="#303030"/>
<line x1="85.00" y1="450" x2="85.00" y2="455" stroke="#303030"/>
<text x="85.00" y="472" text-anchor="middle" font-size="11">4</text>
<line x1="80" y1="450.00" x2="85" y2="450.00" stroke="#303030"/>
<text x="75" y="454.00" text-anchor="end" font-size="11">-5.00</text>
<line x1="242.00" y1="450" x2="242.00" y2="455" stroke="#303030"/>
<text x="242.00" y="472" text-anchor="middle" font-size="11">83</text>
<line x1="80" y1="371.00" x2="85" y2="371.00" stroke="#303030"/>
<text x="75" y="375.00" text-anchor="end" font-size="11">17.00</text>
<line x1="399.00" y1="450" x2="399.00" y2="455" stroke="#303030"/>
<text x="399.00" y="472" text-anchor="middle" font-size="11">162</text>
<line x1="80" y1="292.00" x2="85" y2="292.00" stroke="#303030"/>
<text x="75" y="296.00" text-anchor="end" font-size="11">39.00</text>
<line x1="556.00" y1="450" x2="556.00" y2="455" stroke="#303030"/>
<text x="556.00" y="472" text-anchor="middle" font-size="11">242</text>
<line x1="80" y1="213.00" x2="85" y2="213.00" stroke="#303030"/>
<text x="75" y="217.00" text-anchor="end" font-size="11">61.00</text>
<line x1="713.00" y1="450" x2="713.00" y2="455" stroke="#303030"/>
<text x="713.00" y="472" text-anchor="middle" font-size="11">321</text>
<line x1="80" y1="134.00" x2="85" y2="134.00" stroke="#303030"/>
<text x="75" y="138.00" text-anchor="end" font-size="11">83.00</text>
<line x1="870.00" y1="450" x2="870.00" y2="455" stroke="#303030"/>
<text x="870.00" y="472" text-anchor="middle" font-size="11">400</text>
<line x1="80" y1="55.00" x2="85" y2="55.00" stroke="#303030"/>
<text x="75" y="59.00" text-anchor="end" font-size="11">105.00</text>
<polyline points="85.00,72.95 92.93,72.95 100.86,72.95 108.79,72.95 116.72,72.95 124.65,72.95 132.58,72.95 140.51,72.95 148.43,72.95 156.36,72.95 164.29,72.95 172.22,72.95 180.15,72.95 188.08,72.95 196.01,72.95 203.94,72.95 211.87,72.95 219.80,72.95 227.73,72.95 235.66,72.95 243.59,72.95 251.52,72.95 259.44,72.95 267.37,72.95 275.30,72.95 277.29,90.91 283.23,108.86 291.16,126.82 297.11,144.77 299.09,162.73 307.02,180.68 314.95,180.68 316.93,198.64 322.88,216.59 330.81,234.55 336.76,252.50 338.74,270.45 346.67,288.41 354.60,306.36 356.58,324.32 362.53,342.27 370.45,360.23 376.40,378.18 378.38,396.14 386.31,414.09 394.24,414.09 396.22,414.09 402.17,414.09 410.10,414.09 416.05,414.09 418.03,414.09 425.96,432.05 433.89,432.05 435.87,432.05 441.82,432.05 449.75,432.05 455.69,432.05 457.68,432.05 465.61,432.05 473.54,432.05 475.52,432.05 481.46,432.05 489.39,432.05 495.34,432.05 497.32,432.05 505.25,432.05 513.18,432.05 515.16,432.05 521.11,432.05 529.04,414.09 534.99,414.09 536.97,414.09 544.90,396.14 552.83,378.18 554.81,378.18 560.76,378.18 568.69,378.18 574.63,378.18 576.62,378.18 584.55,378.18 592.47,378.18 594.46,378.18 600.40,378.18 608.33,378.18 614.28,378.18 616.26,378.18 624.19,378.18 632.12,378.18 634.10,378.18 640.05,396.14 647.98,396.14 653.93,396.14 655.91,414.09 663.84,432.05 671.77,432.05 673.75,432.05 677.71,432.05 679.70,432.05 681.68,432.05 685.64,432.05 687.63,432.05 689.61,432.05 693.57,432.05 695.56,432.05 697.54,432.05 701.50,432.05 703.48,432.05 705.47,432.05 709.43,432.05 711.41,414.09 713.40,414.09 717.36,414.09 719.34,414.09 721.33,414.09 725.29,414.09 727.27,414.09 729.26,414.09 733.22,414.09 735.20,396.14 737.18,396.14 741.15,396.14 743.13,396.14 745.11,396.14 749.08,396.14 751.06,396.14 753.04,396.14 757.01,396.14 758.99,396.14 760.97,396.14 766.92,396.14 768.90,396.14 772.87,378.18 774.85,360.23 776.83,342.27 780.80,324.32 782.78,324.32 784.76,306.36 788.72,288.41 790.71,288.41 792.69,288.41 796.65,270.45 798.64,252.50 800.62,252.50 804.58,234.55 806.57,216.59 808.55,198.64 812.51,180.68 814.49,162.73 816.48,144.77 820.44,144.77 822.42,126.82 824.41,126.82 828.37,126.82 830.35,126.82 832.34,126.82 836.30,108.86 838.28,108.86 840.27,108.86 844.23,108.86 846.21,90.91 848.19,90.91 852.16,90.91 854.14,72.95 856.12,72.95 860.09,72.95 862.07,72.95 864.05,72.95 868.02,72.95 870.00,72.95" fill="none" stroke="#1f1f1f" stroke-width="1.8" stroke-linejoin="round"/>
<text x="477.5" y="498" text-anchor="middle" font-size="14">Training episode</text>
<text x="24" y="252.5" text-anchor="middle" font-size="14" transform="rotate(-90 24 252.5)">Completion rate (%)</text>
</g>
</svg>
