<?xml version="1.0" encoding="UTF-8"?>
<svg xmlns="http://www.w3.org/2000/svg" viewBox="0 0 900 520" role="img">
<title>National_Test V6 Unity Actor Loss</title>
<rect width="100%" height="100%" fill="#ffffff"/>
<g font-family="Times New Roman, Noto Serif SC, serif" fill="#202020">
<text x="450.0" y="28" text-anchor="middle" font-size="18">National_Test V6 Unity Actor Loss</text>
<rect x="85" y="55" width="785" height="395" fill="none" stroke="#303030"/>
<line x1="85.00" y1="450" x2="85.00" y2="455" stroke="#303030"/>
<text x="85.00" y="472" text-anchor="middle" font-size="11">1</text>
<line x1="80" y1="450.00" x2="85" y2="450.00" stroke="#303030"/>
<text x="75" y="454.00" text-anchor="end" font-size="11">0.86</text>
<line x1="242.00" y1="450" x2="242.00" y2="455" stroke="#303030"/>
<text x="242.00" y="472" text-anchor="middle" font-size="11">5</text>
<line x1="80" y1="371.00" x2="85" y2="371.00" stroke="#303030"/>
<text x="75" y="375.00" text-anchor="end" font-size="11">1.19</text>
<line x1="399.00" y1="450" x2="399.00" y2="455" stroke="#303030"/>
<text x="399.00" y="472" text-anchor="middle" font-size="11">9</text>
<line x1="80" y1="292.00" x2="85" y2="292.00" stroke="#303030"/>
<text x="75" y="296.00" text-anchor="end" font-size="11">1.52</text>
<line x1="556.00" y1="450" x2="556.00" y2="455" stroke="#303030"/>
<text x="556.00" y="472" text-anchor="middle" font-size="11">14</text>
<line x1="80" y1="213.00" x2="85" y2="213.00" stroke="#303030"/>
<text x="75" y="217.00" text-anchor="end" font-size="11">1.85</text>
<line x1="713.00" y1="450" x2="713.00" y2="455" stroke="#303030"/>
<text x="713.00" y="472" text-anchor="middle" font-size="11">18</text>
<line x1="80" y1="134.00" x2="85" y2="134.00" stroke="#303030"/>
<text x="75" y="138.00" text-anchor="end" font-size="11">2.18</text>
<line x1="870.00" y1="450" x2="870.00" y2="455" stroke="#303030"/>
<text x="870.00" y="472" text-anchor="middle" font-size="11">22</text>
<line x1="80" y1="55.00" x2="85" y2="55.00" stroke="#303030"/>
<text x="75" y="59.00" text-anchor="end" font-size="11">2.51</text>
<polyline points="85.00,230.02 122.38,72.95 159.76,254.53 197.14,333.02 234.52,239.52 271.90,322.15 309.29,181.73 346.67,347.36 384.05,247.57 421.43,298.35 458.81,266.55 496.19,264.91 533.57,317.96 608.33,316.98 645.71,432.05 683.10,251.92 720.48,314.43 757.86,387.38 795.24,362.09 832.62,306.50 870.00,282.83" fill="none" stroke="#1f1f1f" stroke-width="1.8" stroke-linejoin="round"/>
<text x="477.5" y="498" text-anchor="middle" font-size="14">Unity episode</text>
<text x="24" y="252.5" text-anchor="middle" font-size="14" transform="rotate(-90 24 252.5)">Loss</text>
</g>
</svg>
